<?xml version="1.0" standalone="no"?>
<!DOCTYPE svg PUBLIC "-//W3C//DTD SVG 20010904//EN"
"http://www.w3.org/TR/2001/REC-SVG-20010904/DTD/svg10.dtd">
<svg version="1.0" xmlns="http://www.w3.org/2000/svg"
width="512.000000pt" height="512.000000pt" viewBox="0 0 512.000000 512.000000"
preserveAspectRatio="xMidYMid meet">
<metadata>
Created by potrace 1.12, written by Peter Selinger 2001-2015
</metadata>
<polygon points="0,0 512,0 512,512 0,512" fill="#10ed20"></polygon>
<g transform="translate(0.000000,512.000000) scale(0.100000,-0.100000)"
fill="#ffffff" stroke="none">
<path d="M1343 4784 c-15 -31 -16 -38 -3 -61 32 -55 74 -55 94 -1 7 20 4 34
-13 62 -29 47 -56 47 -78 0z"/>
<path d="M2905 4791 c-22 -4 -62 -18 -90 -33 -27 -14 -70 -34 -95 -44 -55 -22
-136 -88 -179 -146 -62 -84 -140 -208 -152 -245 -7 -22 -13 -99 -15 -178 -1
-77 -2 -148 -3 -157 -2 -32 -44 -20 -88 25 -37 38 -91 69 -168 97 -11 4 -37
15 -58 24 -21 9 -45 16 -55 16 -9 0 -37 8 -62 16 -91 33 -191 9 -325 -78 -56
-36 -99 -80 -150 -156 -16 -24 -46 -62 -67 -85 -20 -23 -43 -54 -49 -69 -6
-15 -15 -28 -20 -28 -5 0 -9 -11 -9 -24 0 -14 -4 -27 -9 -30 -4 -3 -11 -18
-14 -34 -7 -35 -45 -102 -58 -102 -12 0 -54 -29 -127 -87 -30 -24 -57 -43 -61
-43 -13 0 -92 -111 -104 -147 -28 -84 -1 -270 53 -368 57 -105 88 -133 184
-169 73 -28 213 -17 281 20 34 20 60 27 90 25 47 -2 55 5 116 92 22 31 44 57
50 57 5 0 9 4 9 10 0 5 15 33 33 62 36 57 55 117 59 188 7 137 -64 230 -247
324 -16 9 -39 21 -50 28 -11 7 -35 22 -52 33 -27 16 -33 26 -33 55 0 58 18
106 60 159 22 28 40 54 40 59 0 5 9 17 20 27 11 10 20 22 20 28 0 16 73 77 91
77 10 0 21 5 24 10 3 6 25 10 49 10 24 0 65 7 92 15 60 18 117 19 164 2 88
-32 184 -117 260 -231 25 -37 50 -73 55 -79 49 -56 64 -122 86 -367 5 -63 13
-124 18 -135 5 -11 5 -29 1 -40 -7 -19 -5 -101 5 -195 2 -25 4 -58 4 -75 0
-16 0 -41 0 -55 0 -14 5 -47 11 -75 23 -103 26 -131 17 -165 -5 -20 -7 -168
-3 -345 5 -290 8 -337 22 -455 3 -25 6 -95 6 -156 1 -135 -1 -138 -135 -251
-51 -42 -123 -108 -162 -147 -38 -38 -110 -103 -160 -145 -115 -95 -142 -123
-155 -156 -22 -58 -4 -96 47 -95 18 1 63 32 63 45 0 15 66 87 94 101 38 19 66
26 66 15 0 -5 -13 -35 -30 -67 -24 -48 -28 -66 -22 -94 6 -29 13 -36 37 -38
16 -2 34 2 40 10 5 7 30 26 54 43 23 16 47 39 51 50 4 11 15 27 24 34 9 7 16
18 16 23 0 10 29 52 80 118 20 25 41 56 48 70 46 91 57 97 91 54 19 -24 20
-37 17 -198 -4 -139 -1 -177 11 -203 18 -38 15 -36 47 -22 35 16 38 30 26 123
-5 44 -9 92 -9 106 1 14 -3 52 -9 85 -11 70 -3 101 32 117 23 10 30 7 72 -27
26 -21 113 -105 195 -186 147 -147 185 -173 218 -152 22 14 25 67 7 105 -20
38 -20 38 0 38 9 0 29 8 45 17 32 19 39 57 17 84 -28 33 -107 89 -193 134 -49
26 -110 61 -134 77 -25 17 -54 34 -65 39 -21 9 -45 24 -102 64 -93 65 -124
148 -124 332 1 71 -2 162 -5 203 -4 41 -6 86 -6 100 0 14 -6 81 -14 150 -8 69
-13 177 -12 241 1 78 -2 121 -10 131 -7 8 -9 24 -6 37 3 12 0 33 -7 46 -8 15
-10 33 -4 52 7 27 14 84 15 128 0 11 -5 45 -12 75 -6 30 -11 82 -10 115 2 33
-3 119 -9 190 -9 104 -9 149 2 225 10 75 11 110 1 165 -11 70 -24 231 -27 355
-2 44 3 78 16 105 10 22 18 60 18 84 0 47 75 210 127 276 38 49 176 139 252
166 96 33 144 30 232 -15 128 -65 259 -187 259 -241 0 -28 -53 -72 -110 -91
-79 -28 -140 -93 -169 -180 -64 -193 -61 -239 28 -375 41 -62 70 -95 106 -118
28 -18 68 -46 90 -62 104 -75 161 -86 236 -45 24 14 71 38 104 55 90 46 144
103 252 266 35 53 40 111 17 188 -28 93 -60 144 -143 228 -67 66 -163 129
-199 129 -12 0 -62 65 -63 82 0 7 -14 33 -29 58 -53 82 -64 105 -69 145 -6 39
-7 40 -60 52 -30 6 -57 15 -60 20 -13 19 -89 57 -151 75 -71 20 -191 29 -255
19z m724 -633 c94 -56 128 -112 140 -231 12 -118 -16 -175 -114 -232 -40 -24
-152 -58 -190 -57 -68 1 -174 50 -215 100 -26 31 -29 44 -35 139 -8 117 -5
130 54 189 59 60 109 88 180 100 101 18 139 17 180 -8z m-2305 -743 c44 -13
53 -13 97 2 46 17 49 17 86 -4 21 -12 55 -30 76 -39 20 -9 37 -20 37 -25 0 -5
7 -9 15 -9 31 0 46 -158 21 -237 -16 -51 -50 -114 -73 -135 -29 -27 -100 -48
-160 -48 -30 0 -63 -5 -74 -11 -11 -5 -43 -12 -70 -14 -47 -3 -54 0 -88 34
-20 20 -49 62 -65 94 -29 57 -29 58 -17 137 8 56 9 85 1 99 -18 34 -11 50 42
102 74 73 92 78 172 54z m1706 -2336 c0 -5 -4 -9 -10 -9 -5 0 -10 7 -10 16 0
8 5 12 10 9 6 -3 10 -10 10 -16z"/>

</g>
</svg>
