<?xml version="1.0" encoding="utf-8"?>

<!DOCTYPE svg PUBLIC "-//W3C//DTD SVG 1.1//EN" "http://www.w3.org/Graphics/SVG/1.1/DTD/svg11.dtd">
<svg version="1.1" id="Capa_1" xmlns="http://www.w3.org/2000/svg" xmlns:xlink="http://www.w3.org/1999/xlink" x="0px" y="0px"
	 width="64px" height="64px" viewBox="0 0 64 64" enable-background="new 0 0 64 64" xml:space="preserve">
<polygon points="0,2 1.5,0.5 1,0.5 1,1 0,1 1,0 5,0 3.5,1.5 4.5,1.5 6,0 7,0 5,2 2,2 3,1 3,0.5 2.5,0.5 1,2" transform="scale(10,16.18)" style=""></polygon>

<polygon points="6,2 8,0 9,0 10,0.5 8.5,0.5 7.5,1.5 9,1.5 9,2" transform="scale(10,16.18)"></polygon>
<polygon points="9,2 9,0.5 10,0.5 10,0 12,0 11.5,0.5 11,0.5 11,1.5 12,1.5 11.5,2 10,2 10,1.5" transform="scale(10,16.18)"></polygon>
</svg>
